<?xml version="1.0" encoding="UTF-8" standalone="no"?>
<svg
   xmlns:dc="http://purl.org/dc/elements/1.1/"
   xmlns:cc="http://creativecommons.org/ns#"
   xmlns:rdf="http://www.w3.org/1999/02/22-rdf-syntax-ns#"
   xmlns:svg="http://www.w3.org/2000/svg"
   xmlns="http://www.w3.org/2000/svg"
   xmlns:sodipodi="http://sodipodi.sourceforge.net/DTD/sodipodi-0.dtd"
   xmlns:inkscape="http://www.inkscape.org/namespaces/inkscape"
   version="1.1"
   id="svg2"
   viewBox="0 0 206.38593 14.6"
   height="4.1204443mm"
   width="58.246696mm"
   inkscape:version="0.91 r13725"
   sodipodi:docname="logo-txorua-simple.svg">
  <sodipodi:namedview
     pagecolor="#ffffff"
     bordercolor="#666666"
     borderopacity="1"
     objecttolerance="10"
     gridtolerance="10"
     guidetolerance="10"
     inkscape:pageopacity="0"
     inkscape:pageshadow="2"
     inkscape:window-width="1366"
     inkscape:window-height="715"
     id="namedview25"
     showgrid="false"
     fit-margin-top="0"
     fit-margin-left="0"
     fit-margin-right="0"
     fit-margin-bottom="0"
     showborder="false"
     inkscape:zoom="2.42"
     inkscape:cx="116.12913"
     inkscape:cy="22.017977"
     inkscape:window-x="0"
     inkscape:window-y="0"
     inkscape:window-maximized="1"
     inkscape:current-layer="svg2" />
  <defs
     id="defs4" />
  <metadata
     id="metadata7">
    <rdf:RDF>
      <cc:Work
         rdf:about="">
        <dc:format>image/svg+xml</dc:format>
        <dc:type
           rdf:resource="http://purl.org/dc/dcmitype/StillImage" />
        <dc:title></dc:title>
      </cc:Work>
    </rdf:RDF>
  </metadata>
  <path
     inkscape:connector-curvature="0"
     style="opacity:1;fill:none;fill-opacity:1;fill-rule:nonzero;stroke:none;stroke-width:1.85030985;stroke-linecap:round;stroke-linejoin:round;stroke-miterlimit:4;stroke-dasharray:none;stroke-opacity:1"
     d="M -321.60288,224.165 A 304.86059,304.86059 0 0 1 -16.742313,-80.695561 304.86059,304.86059 0 0 1 288.11828,224.165 304.86059,304.86059 0 0 1 -16.742313,529.02558 304.86059,304.86059 0 0 1 -321.60288,224.165 Z"
     id="path4138" />
  <g
     style="font-style:normal;font-variant:normal;font-weight:normal;font-stretch:normal;font-size:20px;line-height:125%;font-family:FreeSans;-inkscape-font-specification:'FreeSans, Normal';text-align:start;letter-spacing:0px;word-spacing:0px;writing-mode:lr-tb;text-anchor:start;fill:#000000;fill-opacity:1;stroke:none;stroke-width:1px;stroke-linecap:butt;stroke-linejoin:miter;stroke-opacity:1"
     id="text4174"
     transform="translate(23.31372,-27.875326)">
    <path
       d="m -18.673728,42.295326 0,-12.12 -4.64,0 0,-2.12 11.9,0 0,2.12 -4.66,0 0,12.12 -2.6,0 z"
       style="font-style:normal;font-variant:normal;font-weight:bold;font-stretch:normal;font-size:20px;line-height:125%;font-family:Muli;-inkscape-font-specification:'Muli, Bold';text-align:start;writing-mode:lr-tb;text-anchor:start;fill:#ffffff;fill-opacity:1"
       id="path4219"
       inkscape:connector-curvature="0" />
    <path
       d="m -3.0109156,35.055326 5.42,7.24 -3.02,0 -3.86,-5.32 -3.86,5.32 -3.0200004,0 5.4200004,-7.26 -5.2400004,-6.98 3.0200004,0 3.68,5.1 3.72,-5.1 3,0 -5.26,7 z"
       style="font-style:normal;font-variant:normal;font-weight:bold;font-stretch:normal;font-size:20px;line-height:125%;font-family:Muli;-inkscape-font-specification:'Muli, Bold';text-align:start;writing-mode:lr-tb;text-anchor:start;fill:#ffffff;fill-opacity:1"
       id="path4221"
       inkscape:connector-curvature="0" />
    <path
       d="m 9.6187719,42.475326 q -2.06,0 -3.6,-0.88 -1.52,-0.9 -2.36,-2.54 -0.82,-1.66 -0.82,-3.9 0,-2.22 0.82,-3.86 0.82,-1.66 2.34,-2.54 1.54,-0.88 3.62,-0.88 2.0800001,0 3.6000001,0.88 1.54,0.88 2.34,2.54 0.82,1.64 0.82,3.86 0,2.24 -0.82,3.9 -0.82,1.64 -2.34,2.54 -1.52,0.88 -3.6000001,0.88 z m 0,-2.06 q 1.9800001,0 3.0800001,-1.36 1.1,-1.36 1.1,-3.9 0,-2.52 -1.1,-3.86 -1.1,-1.36 -3.0800001,-1.36 -1.98,0 -3.08,1.34 -1.1,1.34 -1.1,3.88 0,2.54 1.1,3.9 1.1,1.36 3.08,1.36 z"
       style="font-style:normal;font-variant:normal;font-weight:bold;font-stretch:normal;font-size:20px;line-height:125%;font-family:Muli;-inkscape-font-specification:'Muli, Bold';text-align:start;writing-mode:lr-tb;text-anchor:start;fill:#ffffff;fill-opacity:1"
       id="path4223"
       inkscape:connector-curvature="0" />
    <path
       d="m 30.721897,42.295326 -2.72,0 -1.82,-4.74 q -0.24,-0.66 -0.74,-0.92 -0.5,-0.26 -1.3,-0.26 l -2.58,0 0,5.92 -2.56,0 0,-14.24 6.1,0 q 2.42,0 3.68,1.06 1.26,1.06 1.26,3.04 0,1.42 -0.76,2.42 -0.74,0.98 -2.12,1.4 1.26,0.26 1.82,1.76 l 1.74,4.56 z m -5.98,-7.92 q 1.46,0 2.16,-0.54 0.7,-0.54 0.7,-1.64 0,-1.08 -0.7,-1.6 -0.68,-0.54 -2.16,-0.54 l -3.22,0 0,4.32 3.22,0 z"
       style="font-style:normal;font-variant:normal;font-weight:bold;font-stretch:normal;font-size:20px;line-height:125%;font-family:Muli;-inkscape-font-specification:'Muli, Bold';text-align:start;writing-mode:lr-tb;text-anchor:start;fill:#ffffff;fill-opacity:1"
       id="path4225"
       inkscape:connector-curvature="0" />
    <path
       d="m 38.905334,42.475326 q -2.94,0 -4.46,-1.5 -1.5,-1.52 -1.5,-4.44 l 0,-8.48 2.54,0 0,8.62 q 0,1.84 0.86,2.8 0.86,0.94 2.56,0.94 1.66,0 2.52,-0.96 0.88,-0.96 0.88,-2.78 l 0,-8.62 2.54,0 0,8.48 q 0,2.9 -1.52,4.42 -1.52,1.52 -4.42,1.52 z"
       style="font-style:normal;font-variant:normal;font-weight:bold;font-stretch:normal;font-size:20px;line-height:125%;font-family:Muli;-inkscape-font-specification:'Muli, Bold';text-align:start;writing-mode:lr-tb;text-anchor:start;fill:#ffffff;fill-opacity:1"
       id="path4227"
       inkscape:connector-curvature="0" />
    <path
       d="m 58.592834,42.295326 -1.42,-3.34 -6.96,0 -1.44,3.34 -2.6,0 6.44,-14.24 2.1,0 6.46,14.24 -2.58,0 z m -7.52,-5.34 5.24,0 -2.62,-6.1 -2.62,6.1 z"
       style="font-style:normal;font-variant:normal;font-weight:bold;font-stretch:normal;font-size:20px;line-height:125%;font-family:Muli;-inkscape-font-specification:'Muli, Bold';text-align:start;writing-mode:lr-tb;text-anchor:start;fill:#ffffff;fill-opacity:1"
       id="path4229"
       inkscape:connector-curvature="0" />
    <path
       d="m 80.632834,28.055326 2.48,0 -5.04,14.24 -2.1,0 -3.58,-10.24 -3.62,10.24 -2.1,0 -5.02,-14.24 2.62,0 3.56,10.62 3.7,-10.62 1.84,0 3.62,10.7 3.64,-10.7 z"
       style="font-style:normal;font-variant:normal;font-weight:bold;font-stretch:normal;font-size:20px;line-height:125%;font-family:Muli;-inkscape-font-specification:'Muli, Bold';text-align:start;writing-mode:lr-tb;text-anchor:start;fill:#eba400;fill-opacity:1"
       id="path4231"
       inkscape:connector-curvature="0" />
    <path
       d="m 85.095647,42.295326 0,-14.24 9.52,0 0,2.04 -7,0 0,3.94 6.58,0 0,2.04 -6.58,0 0,4.18 7,0 0,2.04 -9.52,0 z"
       style="font-style:normal;font-variant:normal;font-weight:bold;font-stretch:normal;font-size:20px;line-height:125%;font-family:Muli;-inkscape-font-specification:'Muli, Bold';text-align:start;writing-mode:lr-tb;text-anchor:start;fill:#eba400;fill-opacity:1"
       id="path4233"
       inkscape:connector-curvature="0" />
    <path
       d="m 105.76971,34.935326 q 1.24,0.36 1.9,1.26 0.68,0.9 0.68,2.22 0,1.82 -1.3,2.86 -1.28,1.02 -3.58,1.02 l -6.460001,0 0,-14.24 6.260001,0 q 2.2,0 3.46,1 1.26,0.98 1.26,2.72 0,1.12 -0.6,1.96 -0.58,0.82 -1.62,1.2 z m -6.240001,-0.88 3.320001,0 q 2.68,0 2.68,-2 0,-1 -0.66,-1.5 -0.66,-0.5 -2.02,-0.5 l -3.320001,0 0,4 z m 3.660001,6.24 q 1.4,0 2.04,-0.5 0.66,-0.5 0.66,-1.58 0,-1.1 -0.66,-1.62 -0.64,-0.52 -2.04,-0.52 l -3.660001,0 0,4.22 3.660001,0 z"
       style="font-style:normal;font-variant:normal;font-weight:bold;font-stretch:normal;font-size:20px;line-height:125%;font-family:Muli;-inkscape-font-specification:'Muli, Bold';text-align:start;writing-mode:lr-tb;text-anchor:start;fill:#eba400;fill-opacity:1"
       id="path4235"
       inkscape:connector-curvature="0" />
    <path
       d="m 110.79877,28.055326 5.24,0 q 3.5,0 5.42,1.86 1.94,1.86 1.94,5.24 0,3.4 -1.94,5.28 -1.92,1.86 -5.42,1.86 l -5.24,0 0,-14.24 z m 5.08,12.14 q 4.92,0 4.92,-5.04 0,-5 -4.92,-5 l -2.5,0 0,10.04 2.5,0 z"
       style="font-style:normal;font-variant:normal;font-weight:bold;font-stretch:normal;font-size:20px;line-height:125%;font-family:Muli;-inkscape-font-specification:'Muli, Bold';text-align:start;writing-mode:lr-tb;text-anchor:start;fill:#eba400;fill-opacity:1"
       id="path4237"
       inkscape:connector-curvature="0" />
    <path
       d="m 126.03315,42.295326 0,-14.24 9.52,0 0,2.04 -7,0 0,3.94 6.58,0 0,2.04 -6.58,0 0,4.18 7,0 0,2.04 -9.52,0 z"
       style="font-style:normal;font-variant:normal;font-weight:bold;font-stretch:normal;font-size:20px;line-height:125%;font-family:Muli;-inkscape-font-specification:'Muli, Bold';text-align:start;writing-mode:lr-tb;text-anchor:start;fill:#eba400;fill-opacity:1"
       id="path4239"
       inkscape:connector-curvature="0" />
    <path
       d="m 142.5719,42.475326 q -1.64,0 -3.08,-0.44 -1.42,-0.44 -2.42,-1.26 l 0.88,-1.88 q 1.04,0.78 2.16,1.16 1.14,0.36 2.48,0.36 1.48,0 2.28,-0.52 0.82,-0.52 0.82,-1.46 0,-0.8 -0.76,-1.22 -0.74,-0.44 -2.46,-0.82 -2.68,-0.58 -3.9,-1.5 -1.22,-0.92 -1.22,-2.68 0,-1.26 0.68,-2.24 0.68,-0.98 1.92,-1.54 1.26,-0.56 2.9,-0.56 1.5,0 2.84,0.46 1.36,0.44 2.22,1.24 l -0.86,1.88 q -1.9,-1.52 -4.2,-1.52 -1.38,0 -2.18,0.58 -0.8,0.56 -0.8,1.54 0,0.84 0.7,1.28 0.72,0.44 2.44,0.82 1.78,0.42 2.9,0.92 1.12,0.48 1.72,1.26 0.6,0.76 0.6,1.92 0,1.28 -0.68,2.24 -0.68,0.94 -1.96,1.46 -1.28,0.52 -3.02,0.52 z"
       style="font-style:normal;font-variant:normal;font-weight:bold;font-stretch:normal;font-size:20px;line-height:125%;font-family:Muli;-inkscape-font-specification:'Muli, Bold';text-align:start;writing-mode:lr-tb;text-anchor:start;fill:#eba400;fill-opacity:1"
       id="path4241"
       inkscape:connector-curvature="0" />
    <path
       d="m 150.64252,42.295326 0,-14.24 2.58,0 0,14.24 -2.58,0 z"
       style="font-style:normal;font-variant:normal;font-weight:bold;font-stretch:normal;font-size:20px;line-height:125%;font-family:Muli;-inkscape-font-specification:'Muli, Bold';text-align:start;writing-mode:lr-tb;text-anchor:start;fill:#eba400;fill-opacity:1"
       id="path4243"
       inkscape:connector-curvature="0" />
    <path
       d="m 168.18658,34.595326 0,6.84 q -0.98,0.48 -2.36,0.76 -1.38,0.28 -2.82,0.28 -2.2,0 -3.82,-0.88 -1.62,-0.88 -2.48,-2.52 -0.86,-1.64 -0.86,-3.92 0,-2.24 0.86,-3.88 0.86,-1.64 2.44,-2.52 1.6,-0.88 3.74,-0.88 1.5,0 2.8,0.44 1.32,0.44 2.2,1.24 l -0.88,1.88 q -1,-0.78 -1.96,-1.12 -0.96,-0.34 -2.1,-0.34 -2.2,0 -3.34,1.32 -1.12,1.32 -1.12,3.86 0,2.62 1.16,3.96 1.16,1.32 3.46,1.32 1.4,0 2.76,-0.38 l 0,-3.6 -3.08,0 0,-1.86 5.4,0 z"
       style="font-style:normal;font-variant:normal;font-weight:bold;font-stretch:normal;font-size:20px;line-height:125%;font-family:Muli;-inkscape-font-specification:'Muli, Bold';text-align:start;writing-mode:lr-tb;text-anchor:start;fill:#eba400;fill-opacity:1"
       id="path4245"
       inkscape:connector-curvature="0" />
    <path
       d="m 180.65221,28.055326 2.42,0 0,14.24 -1.92,0 -7.68,-9.98 0,9.98 -2.4,0 0,-14.24 1.92,0 7.66,9.96 0,-9.96 z"
       style="font-style:normal;font-variant:normal;font-weight:bold;font-stretch:normal;font-size:20px;line-height:125%;font-family:Muli;-inkscape-font-specification:'Muli, Bold';text-align:start;writing-mode:lr-tb;text-anchor:start;fill:#eba400;fill-opacity:1"
       id="path4247"
       inkscape:connector-curvature="0" />
  </g>
</svg>
