<svg version="1" xmlns="http://www.w3.org/2000/svg" width="1312" height="1312" viewBox="0 0 984.000000 984.000000"><path d="M795 58.2c-5.8 6-12.7 15.8-14.4 20.6-.8 2.2-2.5 5.7-3.8 7.8-1.4 2.2-3 6.1-3.7 8.9-.7 2.7-2.3 6.8-3.6 9.1-5.1 8.8-6.7 14.6-8.6 32.4-4.1 38-7.1 105.6-7 155.5.2 37.2-.6 60.9-3.1 103l-1.1 19-4.7 4.9c-4.3 4.5-5.2 4.9-10.1 5.3-3 .3-10.8-.5-17.5-1.6-6.7-1.2-13.3-2.1-14.7-2.1-1.4 0-3-.7-3.4-1.5-.6-1-3.6-1.8-8.7-2.5-4.3-.5-9.4-1.4-11.4-1.9-2.1-.5-7.3-1.2-11.7-1.5-4.4-.3-9.6-1.1-11.5-1.7-1.9-.6-9.1-1.2-16-1.4-6.9-.2-15.9-.8-20-1.4-5.8-.8-9.5-.7-16 .4-4.7.8-12.3 1.7-17 1.9-4.7.3-17.7 1.2-29 2.1-11.3.9-22.6 1.4-25.2 1.1-3-.4-8.8.2-17 1.8-6.7 1.3-16.1 2.8-20.8 3.1-4.7.4-11.9 1.6-16 2.6s-7.6 1.4-7.8.9c-.4-1.1-6.9-.1-10.4 1.7-2.4 1.2-2.7 1.1-2.2-.2s-.1-1.2-3.7.3c-2.4 1.1-6 1.8-7.9 1.7-2.3-.2-5.5.8-9.5 2.9-6.4 3.3-10.1 4.4-9 2.7.9-1.6-.1-1.4-4.4.9-2.1 1-4.1 1.7-4.4 1.4-.3-.3-1.4-.1-2.5.5-1.5.8-2.1.8-2.4 0-.3-.8-1.4-.6-3.6.5-1.9 1-3.2 1.2-3.2.6s-.6-1.7-1.3-2.4c-1-1.2-1.9-.8-5.4 2.1-2.4 1.9-4 2.7-3.7 1.9.7-1.8-.7-2.1-2.3-.5-.7.7-.9.2-.6-1.8.3-1.7.1-2.3-.4-1.6-.9 1.2-8 6.3-8.8 6.3-.3 0-.5-.7-.5-1.5 0-1.8-2.3-1.9-5.1-.4-2 1-2 .9-.4-2 1.9-3.9 1-3.9-3.4-.1-4 3.4-5 3.3-2.6-.4 1-1.4 1.4-2.6 1.1-2.6-1.2 0-5.1 2.5-6.2 4-2.4 3.1-5.5 6.5-4.9 5.2 1.1-2.1-.6-1.3-3.2 1.4-2.1 2.3-3 2.5-6.4 2-2.1-.3-3.9-.3-3.9.2 0 .4-1.9 1.6-4.2 2.6-2.4.9-5.1 2.1-6 2.7-1.2.6-1.8.6-1.8-.1 0-1.2-3.7-1.3-4.4-.1-.7 1.1-12.4 5.4-15.6 5.6-1.4.2-4.2-.2-6.3-.7-3.1-.7-4.3-.6-5.7.7-1.6 1.5-1.7 1.4-1.3-1 .6-2.9.1-3.1-2.2-.9-1.5 1.5-1.6 1.4-1.3-1.2.2-2.3-.1-2.8-1.4-2.6-1.3.2-1.8-.4-1.8-1.9 0-2-.2-1.9-3.5 1-4 3.5-5.5 3.9-5.5 1.5 0-1.2-.7-1.5-2.5-1.2-1.7.4-2.5.1-2.5-.9 0-.8-.4-1.1-1-.8-.5.3-1-.3-1-1.5 0-1.7-.4-1.9-2.5-1.4-1.9.5-3.1.1-4.5-1.6-1.2-1.4-2.6-2-3.6-1.6-.9.3-3.2-.2-5.3-1.2l-7.6-3.8c-4.9-2.3-12.4-7.6-12.5-8.8 0-1-4.4-4.6-8.1-6.6-1.5-.8-5.8-4.2-9.4-7.4-9.2-8.1-18-13.8-29.9-19.5-5.6-2.7-10.7-5.6-11.5-6.5-.7-.9-1.9-1.6-2.6-1.6-.7 0-2.5-1.4-3.8-3-1.4-1.7-3-3-3.6-3-1.3 0-12.6-11.2-16.5-16.2-1.5-2-4.2-5.2-5.9-7-1.8-1.9-5.9-7.4-9.2-12.3-7.4-11-10.7-14.5-13.5-14.5-1.3 0-5.4 1.2-9.3 2.7-6.5 2.6-7.4 3.3-10.9 8.7-2.1 3.3-3.8 6.4-3.8 7 0 .6-.7 2.4-1.6 4.1-.9 1.8-1.1 3.1-.5 3.3.5.2.8.9.5 1.7-.3.7-.1 2.2.5 3.3.6 1.1.6 2.3.1 2.8s-.5 2.5.1 5c.8 2.9.7 5.3-.1 8.2-1.2 4.6-1.3 4.7-4.1 3.2-1.5-.9-1.9-.7-1.9.5 0 .9-.4 1.4-.9 1.1-.5-.3-1.4.1-2.1.9-.7.8-1.6 1.2-2.1.9-.5-.2-2 .2-3.3 1.1-1.4.9-3.1 1.3-3.7.9-.7-.4-1.8.1-2.6 1.1-1.2 1.8-1.3 1.8-1.3-.3 0-3-1.2-2.8-3.2.5-1.5 2.4-1.8 2.5-1.8.8-.1-1.4-.8-.6-2.5 2.5-1.3 2.5-2.4 3.9-2.5 3.2 0-2.4-1.9-1.2-2.5 1.8-.6 2.5-.9 2.8-2.5 2-2.5-1.3-3-1.3-3 .5 0 .8-.4 1.5-1 1.5-.5 0-1 1.2-1 2.7 0 2.6-.1 2.6-1.5.7-.8-1.1-1.4-1.4-1.5-.6 0 .7-1.4 2.6-3.1 4.3-1.7 1.6-2.8 3.6-2.6 4.4.6 1.4-1.5 7.5-5.7 16.5-3.3 7.1-14.1 19.7-19 22.2-11.2 5.7-16 17.7-11.7 29.3 1.2 3.1 1.9 6.1 1.5 6.6-.3.5-2.7 2-5.4 3.4-4.3 2.2-7.2 4.5-5.5 4.5.3 0 3.3-1.1 6.7-2.5 3.4-1.4 5.7-2 5-1.3-1.6 1.6-1.5 2.8.3 2.8.8 0 1.5.3 1.5.7 0 1.2-11.4 15-17.3 21-2.8 2.9-4.8 5.6-4.4 5.9.7.8.6.9 12.2-9.1 4.4-3.8 8.9-7.6 9.9-8.5 1.1-.8-1.7 2.9-6 8.2-6.8 8.2-11.3 16.2-10 17.6.2.2 3.5-3.9 7.4-9 8.9-11.9 13.1-16.7 13.2-14.9 0 1.7-4.1 9.1-5.2 9.1-.4 0-.8.8-.8 1.7 0 1-1 3.4-2.1 5.3-4.4 7.1-14 27.2-13.6 28.3.3 1.1 1.7-1 9-14.3 5.3-9.6 7.2-11.7 4.7-5.2-2.6 6.8-2.5 8.2.2 4.6 3.4-4.6 4.1-5.1 3.3-2.7-.6 2.3.1 2.9 2 1.5.6-.4 1.9-2.6 2.9-5 1.1-2.3 2-4.1 2.2-3.9.2.1-.6 3.6-1.6 7.7-1.1 4.1-2 8.1-2 8.7 0 2.5 1.7 1.2 2.7-2 .8-2.5.9-1.5.6 5.3l-.3 8.5 4.1-14.5c2.2-8 4.5-15.6 5-17 .9-2.6.9-1.8-1.1 13.5-2.1 15.9-.3 14.8 2.6-1.5 1.9-11.1 3.1-11.1 3.3-.3.2 8.3 2.1 6.3 2.1-2.1 0-8.1 1.2-10.2 3.9-7 .9 1.1 2.8 2 4.4 2.1 5.5.5 6.7.7 6.7 1.5 0 .4 1.5.8 3.4.8 2.4 0 3.6-.5 3.9-1.8.3-1 .5-.4.6 1.3.2 2.8.3 2.9 1.6 1.1.7-1 1.8-1.5 2.4-1.2.5.4 1.5-.2 2-1.2.7-1.3 1.9-1.8 3.8-1.6 1.5.1 3.2 0 3.8-.4 1.4-.9 15.5-.9 15.5 0 0 .5.8.8 1.8.8.9 0 2.3.9 3 2 .7 1.1 1.9 2 2.7 2 .9 0 1.5.9 1.5 2.5 0 1.7.4 2.3 1.4 1.9.8-.3 1.8.5 2.4 2.3 2.1 5.3 3.8 6.6 9.7 7.1 3 .2 5.5.8 5.5 1.3 0 1.3 3.8 4.9 5.1 4.9 2 0 7.4 5.5 7.4 7.5 0 1.6.7 2 3.5 2 3.6-.1 7 2 7 4.2 0 .7.7 1.3 1.5 1.3.9 0 1.5.9 1.5 2.4 0 1.4.4 2.7.9 3 .5.3.7 1.9.5 3.6-.3 2.2.1 3 1.1 3 1.1 0 1.4.7 1.1 2.2-.3 1.3-.8 4.5-1.2 7.3-.4 2.7-.9 5.9-1.1 7-.2 1.1-.4 3.5-.4 5.3-.1 2.1-.8 3.7-2 4.5-2.3 1.4-2.5 3.7-.4 3.7 2 0 1.9 2-.2 5-1.2 1.7-1.4 2.5-.4 2.8.9.3.8 1-.4 2.9-2 2.9-1.3 4.1 1.2 2.2 1.4-1.1 1.4-.9-.2.9-1.5 1.8-1.6 2.5-.6 3.1.9.6 1 1.1.2 1.5-1.8 1.1-1.3 3.6.5 2.9 1.4-.5 1.6-.2 1 2.2-.4 1.5-1.4 3.4-2.2 4.2-2.5 2.6-3.8 5.7-2.5 6.1.6.2 1.1 1 1.1 1.8s.5 1.4 1.2 1.4c.6 0 .4.7-.5 1.8-2.1 2.3-2.2 4.2-.2 4.2 2.4 0 2.9 2.7 1.1 5.5-.9 1.3-1.6 3.1-1.6 4 0 .8-.4 1.5-1 1.5-.5 0-1 .4-1 1 0 .5.7 1 1.6 1 1.1 0 1.4.5.9 1.7-.3 1-.9 3-1.2 4.5-.3 1.6-1 2.5-1.6 2.1-.7-.4-.8 0-.3 1.3 1.2 2.7 1.3 6.7.3 8.1-.5.7-1.1 2.7-1.4 4.5-.3 1.8-1 3.9-1.6 4.6-.8 1-.7 1.6.4 2.2 1.2.8 1 1.2-.7 2.4-1.2.9-2.5 3.2-2.9 5.2-.3 2-1.3 4.8-2.2 6-.8 1.3-1.3 3.3-1 4.3.3 1.2-.4 2.8-1.9 4.2-1.4 1.3-2.3 2.8-2.1 3.3.4 1.2-3.5 4.6-5.2 4.6-2.5 0-.8 2.2 2.9 3.9l3.9 1.7-5 2.2c-4.3 1.8-5 2.4-4.4 4.1.3 1.2.2 2.1-.3 2.1-.6 0-1.7 1.7-2.7 3.7-2.6 5.8-5.9 11.9-7.3 13.5-.7.9-1 2.2-.7 3 .3.7-.4 2.4-1.6 3.6-1.6 1.8-1.8 2.6-.9 3.7s.8 2-.8 4.2c-1 1.5-2.7 4.5-3.7 6.6-1 2.1-2.9 4.6-4.2 5.4-1.4 1-2.2 2.2-1.8 3.1.3.8-1.7 4.7-4.5 9-2.7 4.1-5 8-5 8.6 0 .7-.4 1.6-.9 2.1-.5.6-3.9 6.8-7.6 14-10.6 20.4-13.8 25.5-22 34.6-4.3 4.6-9.5 10.8-11.7 13.7-2.2 2.9-4.6 5.6-5.4 5.9-.8.3-1.4 1.1-1.4 1.8 0 1.8-3.3 2.5-12.6 2.5-6.7 0-8.5.3-10.5 2.1-1.3 1.1-3.7 2.7-5.4 3.5-3.3 1.6-10.1 11.9-11.1 17-1.9 9.8 6.3 18.3 20.2 20.8 5.5 1 6.8 1.4 4.2 1.5-2 .1-4 .5-4.3 1.1-.4.6 2.2 1 7.2 1 5.5 0 7.4-.3 6.3-1-1.3-.9-1.3-1.1 0-2 .8-.6 2.6-1.2 4-1.5 1.4-.3 4.4-1 6.8-1.5 2.3-.6 5.4-1 6.8-1 1.3 0 4.1-.8 6.2-1.9 2-1 5.6-2.2 8-2.6 3.9-.6 5.2-1.7 15.8-13.8 6.3-7.2 12.6-15.2 14-17.7 1.5-2.7 4.5-5.8 7.4-7.8 6.1-4.2 20-19.7 20-22.3 0-.5.7-.9 1.5-.9s2.5-1 3.8-2.3c1.3-1.2 3.3-2.9 4.6-3.7 1.2-.8 3.8-3.5 5.7-6 1.9-2.5 6.1-6.4 9.2-8.7 3.1-2.4 6.4-5.5 7.3-7 1-1.8 2.6-2.9 4.2-3.1 1.5-.2 3.2-1.2 3.7-2.3.6-1 3.4-4 6.3-6.6 2.8-2.7 7-6.7 9.3-9 2.3-2.2 6-5.3 8.2-6.7 2.2-1.3 4.6-3.9 5.3-5.5 1.1-2.4 1.9-3 3.6-2.6 1.5.2 2.6-.3 3.3-1.5.6-1.1 2.2-3.1 3.5-4.6 1.4-1.5 2.5-3.1 2.5-3.5 0-.5.7-.9 1.5-.9s1.5-.3 1.5-.8c0-.7 3.5-5 7.5-9.3.8-.9 1.5-2.3 1.5-3.1 0-1 .8-1.4 2.6-1.2 1.8.2 2.7-.4 3.4-2 .5-1.3 2.5-3.3 4.4-4.4 2-1.2 3.6-2.7 3.6-3.5 0-.7 2.3-3.3 5.1-5.8 2.8-2.4 6.1-5.4 7.4-6.5 1.6-1.5 2.7-1.8 3.4-1.1.7.7 1.5.6 2.6-.3.8-.7 1.5-.8 1.5-.2 0 1.4 4.2 2.3 5.5 1.2.7-.6 1.5-.7 1.8-.3.4.3.7.1.7-.5 0-.7.7-1.2 1.5-1.2s1.5.4 1.5.9 1.1.4 2.5-.2c1.4-.7 2.5-1.7 2.5-2.2 0-1 4.5-3.5 6.2-3.5.5 0 1.9-1.1 3.2-2.5 2.1-2.2 2.5-2.3 4.2-1 2.4 1.8 3.4 1.9 3.4.1 0-1.5 2.4-2.8 3.4-1.9.3.3.3 1.7 0 2.9-.8 3.1.9 3.1 3.3.1 1.7-2.2 5.3-2.6 5.3-.6 0 .5.6.9 1.3.9.8 0 2.2.9 3.3 2.1 1 1.1 2.6 1.8 3.6 1.6 1-.3 2-.1 2.3.3.3.5 2.1.4 4.1-.2 3-.8 3.8-.7 4.8.8 1.2 1.6 1.4 1.6 2.3-.1 1-1.7 1.1-1.7 2.2.3.7 1.2 2.1 2.2 3.1 2.2 1.5 0 2 .7 2 2.5 0 1.6.6 2.5 1.6 2.5 1.8 0 4.4 2.3 4.4 3.9 0 .6 1.6 1.1 3.5 1.1s3.5.4 3.5 1c0 .5.7 1 1.5 1 1.7 0 3.5 3 3.5 5.9 0 1.1.7 2.4 1.5 2.8 2.1 1.2 5.5 8.2 5.5 11.5 0 1.8.4 2.6 1.2 2.3 1.7-.7 7.5 10.7 8.3 16.2.5 2.8 1.1 4 1.9 3.7.8-.3 2 1 3 3.5.9 2.3 2 4.1 2.5 4.1 1.2 0 4 8.1 5.7 16.5 2.2 11.2 7.8 31 12.8 45 2.9 8.2 4.5 26.2 2.7 30.8-.9 2.3-1.6 2.7-4.9 2.7-5.1 0-6.3 1.1-10.8 10.5-3.4 6.9-3.9 8.8-3.9 15 .1 4.6.6 8.1 1.7 10.1 1.5 2.7 2.4 3.2 7 3.7 6.7.9 45.5.9 48.5.1 2.9-.8 7.4-7.7 11.3-17.2 3.7-9.4 6.2-14.5 7.3-15.3.5-.4.4-1.7-.3-2.9-.6-1.2-.9-3.6-.6-5.4.4-2.1.1-3.9-1.1-5.6-1.2-1.7-1.3-2.5-.5-2.8 1.5-.5 1.5-3.5 0-5-.9-.9-.7-1.2 1.1-1.2 2.2 0 2.3-.2 1.6-4.8-.4-2.6-.7-11.3-.6-19.5 0-13.1-.2-14.8-1.7-15.8-1.7-1.1-1.7-1.4.6-6.1 1.6-3.5 2.2-5.8 1.7-7.6-.4-1.5-.8-14.5-1-28.8-.1-14.4-.6-26.7-1-27.4-.4-.7-.7-4.8-.7-9.2.1-5.6-.3-8-1.2-8.4-1-.4-.6-1.9 1.5-6 2.6-4.9 2.8-5.8 1.5-7.5-.8-1.1-1.2-2.9-.9-4 .3-1.1 0-1.9-.7-1.9-.9 0-1-.3-.1-1.4.6-.7.8-2.1.5-3.1-.6-1.4-.3-1.6 1.4-1 2 .6 2.2.3 2.2-2.9 0-2 .5-3.6 1-3.6.6 0 1 .5 1 1.1 0 .5.5.7 1.2.3.6-.4 1.8.2 2.6 1.2 1.3 1.8 1.4 1.7 1-1.3-.3-1.8-.1-3.3.4-3.3.4 0 .8-1 .9-2.3.1-1.7.3-1.5 1 .9 1.2 4.1 3.7 5.2 4.5 1.9l.6-2.5 2 2.3c1.3 1.5 2.1 1.8 2.4.9.3-.6 1-1.2 1.6-1.2.6 0 1.7-.8 2.4-1.7.9-1.2 1.3-1.3 1.4-.5 0 1 .7.9 2.9-.3 2.2-1.1 3.2-1.2 3.7-.3.5.8 1 .6 1.5-.8.6-1.5.8-1.1.8 1.5.1 2.9.3 3.2 1.6 2.1 1.2-1 1.5-.9 1.5.4 0 3.2 1.7.6 2.5-3.6l.7-4.3.9 3.2c1 3.3 2.6 4.2 4.5 2.3.6-.6 2.1-.6 4.3.3 3 1.1 3.4 1 5.2-1.3 1.8-2.3 2-2.4 3-.7 1.5 2.5 2.9 2.1 2.9-.8 0-1.9.5-2.5 1.8-2.3.9.2 2 1 2.4 1.8.4 1 .7.6.7-1.3.1-4.3 2.1-3.1 2.1 1.3 0 4.8 1.1 5.1 3.9.7l2.1-3.2v3.2c0 4.4 1.6 5 2.4.9.5-2.7 1-3.3 2.6-2.9 1.1.3 2.2 1.3 2.5 2.2.3 1 1.7 2.9 3.1 4.2l2.6 2.4-.7-3.5c-.7-3.1-.6-3.3.9-2.1 1.4 1.2 1.6 1 1.6-1.3 0-1.5.7-3.4 1.5-4.2 1.3-1.4 1.5-1.4 1.5 0 0 .9.4 1.6.9 1.6 1.1 0 2.1-2.5 2.1-5.1 0-1.8.1-1.8 2 .1 1.1 1.1 2 2.7 2 3.6 0 2 1.9.8 3-2l.9-2.1v2.2c.1 3.4 1.6 2.8 4.5-2 1.9-3.2 2.5-3.7 2.6-2.1 0 2.3 2.3 4.8 3.3 3.7.4-.3.4-1.8.1-3.2-.4-1.8-.3-2.2.4-1.2.5.7 1.5 1 2.2.6.6-.4 1.7 0 2.3.8 1.7 2.1 7.7 2.8 8.4 1 .4-1.1 1.4-.6 3.8 1.7 2.5 2.4 3.8 3 5.5 2.5 1.5-.5 2.6-.1 3.6 1.2 1.1 1.3 1.7 1.5 2 .5 1.2-2.8 2.4.4 2.4 6.6 0 4.5.3 6.2 1 5.2 1-1.7 1.2-1.5 2.6 2.5.6 1.6 1.5 2.9 2.1 2.8.6-.1 1.3 1.8 1.7 4.3.3 2.4 1.2 5.8 2.1 7.4.8 1.6 1.5 3.8 1.5 5 0 1.2.4 1.8 1 1.5.6-.4 2 1.3 3.1 3.7 1.1 2.4 3.1 6.3 4.4 8.8 1.3 2.5 2.4 5 2.4 5.7.1.6 1.9 4.3 4.1 8.2 2.2 3.9 4 7.5 4 8.1 0 .5.7 1 1.5 1 .9 0 1.5.9 1.5 2.5 0 1.4.6 2.5 1.3 2.5 3.2.1 4.8 2.9 5.2 9 .2 3.4.8 6.7 1.4 7.3 2 2.4 5.2 12.7 4.6 14.7-.4 1.2-.2 2 .5 2 .8 0 .8.6 0 2-.6 1.2-1 2.8-.9 3.8.7 4.9-3.8 14.4-12.5 26.7-3.1 4.4-6.8 10.2-8.4 13-3.6 6.7-11.3 14.5-14.2 14.5-1.2 0-4.5-.7-7.4-1.5-7.4-2.2-10.4-1.5-15.1 3.2-2.2 2.2-4.5 4.2-5 4.4-.6.2-3 3.1-5.2 6.4-5.4 7.7-6.7 14.9-3.4 18.6 1.2 1.3 3.3 3.7 4.6 5.4l2.3 3h59.4l2.5-3c1.4-1.7 6.3-7.1 10.8-12 4.6-5 11.6-13.1 15.7-18.1 4-5.1 11.6-13.8 16.9-19.5 11.5-12.4 17.7-22.1 27.6-42.9 4.1-8.5 8.6-17.9 10.1-20.8 2.2-4.5 2.4-5.5 1.1-6.3-.8-.5-.9-.9-.2-.9s.9-1.3.6-4c-.4-2.7-.2-4 .6-4 .7 0 .3-1.3-1-3.2l-2.3-3.1 3.2.6c2.8.6 3.2.4 3.2-1.6 0-1.2-.9-3.7-2-5.5-1.6-2.6-1.8-3.6-.8-5.1.9-1.5.8-2.4-.5-4.5-2.2-3.2-2.1-3.6.3-3.6 2.5 0 2.5-2 .1-6.9-1.5-2.8-1.7-4.1-.9-4.9.8-.8.7-1.6-.3-2.8-.9-1.2-1-1.5-.1-1 1 .6 1.3.3 1.2-1.9 0-.3.9-1.5 2-2.7 2.1-2.3 2.5-4 1.3-5.2-.4-.3-.8-1.2-.9-1.9-.1-.7-.3-1.7-.4-2.2-.5-2.1 0-3.6 1-3 1.3.8 1.3-2.1-.1-4.6-.9-1.9-.9-1.9 1-1 3.8 2.1 4.2.5 1-4-1.4-2-1.7-3.4-1.1-4.5.6-1.1 1.1-1.3 1.6-.5.4.6 1.4 1.1 2.2 1.1 1.2 0 1.1-.7-.6-4-2.6-5-2.5-5.2.7-4.8 1.5.2 2.8-.2 3-1 .3-.6-.2-1.2-1.1-1.2-.8 0-1.7-.4-2-.9-.4-.5.5-.8 1.9-.6 1.4.1 2.5-.3 2.5-.9-.1-1.7-2.6-4.7-3.3-3.9-.4.3-.7.1-.7-.6 0-1.2 1.4-1 5.8.6.6.3 1.2-.2 1.2-1.1 0-.9-1.1-2.1-2.4-2.5-1.3-.5-2.6-1.7-3-2.7-.5-1.2.3-1 2.8 1 1.9 1.4 4.2 2.6 5 2.6.9 0 1.6.6 1.6 1.3 0 .8 1.1 2 2.5 2.7 1.4.7 2.5 1.9 2.5 2.7 0 .7.5 1.3 1 1.3.6 0 1-.5 1-1.1 0-.6.8-.8 1.9-.4 1.3.4 2.3 0 2.9-1.1.9-1.6 1-1.5 1.6.4.8 2.3 3.2 3 3.8 1.1.2-.5 1.2 1.5 2.2 4.5 1.1 3.1 2.5 5.6 3.3 5.6.7 0 1.3-.4 1.3-1 0-1.6 2.9.1 3.5 2.1.4 1.1 1.2 1.8 1.8 1.6.7-.2 1.9.8 2.9 2.3 1.3 2.3 2.2 2.7 5.2 2.5 3.8-.3 5.6 1.3 5.6 5.2 0 1.1 1.3 2.4 3 3.1 1.7.8 3 2 3 2.8 0 .9.4 1.3.9.9.6-.3 1.3.1 1.8.9.4.8 3 3.1 5.7 5.2 3.8 2.9 5 3.4 5.7 2.3.7-1.1.9-1.1.9-.1 0 .8.6 1.2 1.2 1 .7-.3 1.8.5 2.3 1.6.7 1.2 1.9 2 2.9 1.8 1.2-.2 4 1.8 7.6 5.6 3.2 3.3 7 6.2 8.4 6.6 1.4.3 2.6 1.1 2.6 1.7 0 .5 1.6 1.7 3.5 2.5s3.5 2.1 3.5 3c0 .9.7 1.4 1.8 1.2.9-.2 2.9.9 4.3 2.5 1.6 1.7 2.9 2.5 3.3 1.9.4-.7 1.6-.1 3.1 1.4 1.3 1.3 3.5 2.4 4.8 2.4 1.6 0 2.6.7 3 1.9.5 2 5.7 3.6 5.7 1.7 0-.6.7-.3 1.4.6.7 1 1.8 1.8 2.3 1.8.5 0 1.6 1.1 2.3 2.5 1.4 2.6 5.8 6 6.7 5.2.4-.5 2.8.3 10.6 3.6 1.5.7 3 2.2 3.3 3.4.5 1.8 1 2 3 1.3 1.9-.7 2.4-.6 2.4.5 0 .8.5 1.5 1 1.5.6 0 1.8 1.8 2.7 3.9 1 2.4 2.2 3.7 3 3.4.7-.3 1.3.2 1.3 1s1.5 2.6 3.4 4.1c1.9 1.4 3.8 3.6 4.2 4.8.3 1.1 2.6 4.5 5 7.4 2.7 3.4 4.5 6.8 4.9 9.1.3 2.1 1.2 5.1 2 6.8 2.4 5.4 8.3 23.9 9.3 29.1 1 5.6-.5 15-3.2 20.2-.9 1.7-1.6 4.8-1.6 6.9 0 3.3.5 5.9 3.1 15.2.3 1.1-1 1.8-4.5 2.6-9.3 2-6.1 4.5 8.3 6.5 8.2 1.1 41.2 1.4 46.7.4 3.5-.6 4.6-2.7 1.9-3.8-2.1-.8-1.9-3.7.3-4.3 3.6-.9 5.2-8.8 5.2-26 0-8.8-.5-18.5-1-21.4-1.9-10-10.2-34.3-16.5-48.5-3.5-7.7-7.4-17.2-8.6-21-1.2-3.8-4.5-13.4-7.5-21.4-2.9-8-7-20.1-9-27-2.1-6.9-4.1-12.7-4.4-13-1.8-1.6-4.8-8.2-4.3-9.6.3-.9 0-2-.8-2.5-1.2-.8-1.1-1.2.4-2.3 2.4-1.8 2.1-2.6-.8-2.6-1.7 0-2.5-.6-2.6-1.8-.1-.9-.2-2.6-.3-3.7 0-1.1-1.1-2.1-2.6-2.5-1.9-.5-2.5-1.2-2.3-3.2.1-2.3-.5-2.9-4.7-4.4-3.2-1.1-4.6-2.2-4.3-3.1.3-.8-.8-1.9-3.1-2.8-2.3-1-3.6-2.2-3.6-3.4 0-1.2-.9-2.1-2.6-2.5-2-.5-2.4-1.1-1.9-2.7.4-1.1.1-2.6-.5-3.4-1-1.2-.9-1.6.4-2.1 1.9-.7 1.1-5.4-1.2-6.8-.8-.4-1-1.1-.6-1.5 1.6-1.1 3.5-5.1 2.9-6.1-.3-.4-1.9-1.2-3.6-1.5-2.3-.5-2.8-1-1.8-1.5 1.1-.7 1-1.3-.5-2.9-1.1-1.2-2.7-2.1-3.8-2.1-1 0-1.8-.5-1.8-1.1 0-.5-.4-.8-.9-.4-.5.3-.4-.7.4-2.2 2.9-6.2 2.8-6.9-1.2-7.9-4.9-1.2-6.4-4.8-4.1-9.8 2-4 1.3-7.8-1.2-7.4-.9.2-1.9-.2-2.1-.7-.2-.6.6-1.1 1.8-1.3 2.6-.4 4-3.7 2.3-5.7-.7-.9-.8-1.5 0-2 2.3-1.4.7-2.3-4.1-2.3-2.8 0-5.6-.5-6.2-1.1-.6-.6-2-1.2-3.1-1.2-1.2-.1-.3-.5 1.8-.8 4.3-.7 6.3-3.1 2.5-3.1-1.8 0-2-.3-1.1-1.2 1.7-1.7 1.5-2.8-.7-2.8-2 0-2.4-2.9-.6-4.2.5-.4-.1-1.1-1.5-1.6-2.4-.9-2.4-.9 1.4-3.4 4.2-2.9 4-3.1-4.7-4.3-5.2-.7-6-2.8-1.4-3.3 3-.4 3.7-2.2 1-2.2-1.7-.1-1.7-.1 0-1.4 2.6-2 2-3.6-1.4-3.6-2.7 0-3-.2-1.9-1.5.9-1.1 1.6-1.3 2.4-.5 1.2 1.2 3.6 1.3 3.6.1 0-.5-1-1.2-2.2-1.6-2.2-.8-2.2-.8.5-1.2 4-.6 3.3-2.2-1.5-3-3.8-.6-4-.7-2-1.6 2.8-1.3 2.8-2.7 0-2.8-1.8-.1-1.7-.3.7-.8 3-.7 3-.7.8-1.9-1.3-.7-2.3-1.9-2.3-2.7 0-.7-.6-1.6-1.2-1.8-.7-.3-.2-.6 1.1-.6l2.5-.1-2.9-3c-2.2-2.3-2.5-3-1.2-3 3.3 0 1.6-1.9-4.3-5.1-6-3.2-6.5-4.3-2.5-5.1 1.6-.4 1.2-.8-2-2.4-2.2-1-4.4-2.5-4.8-3.1-.4-.7-2.8-2.6-5.2-4.3-3.6-2.5-4.5-3.7-4.5-6 0-2.1-.5-3-1.6-3-1.2 0-1-.6 1-2.1 3.5-2.7 3.3-3.7-.9-4.5-3.3-.6-3.4-.8-1.8-2 1.6-1.2 1.6-1.5.3-2.4-1.3-.9-1.3-1.1 0-2 1.2-.8 1.2-1-.5-1-1.9-.1-1.9-.1-.2-1.1 1.8-1 1.8-1.2.1-3-1-1.1-1.2-1.9-.6-1.9 2.2 0 1.2-2-1.3-2.6-3.6-.9-3.1-2.4.8-2.5 3-.1 2.9-.2-1.8-1.8-4.9-1.7-4.9-1.8-2.7-3.2 2.7-1.7 2.8-2.9.3-2.9-2.4 0-3.6-1.6-1.9-2.3.8-.4.4-.8-.9-1.2-2.2-.7-2.7-1.6-2.4-4.2.1-.8-.5-1-1.6-.6-1.2.4-1.5.3-.8-.5.6-.5 1.9-1.2 3-1.5 1.6-.3 1.3-.6-1.3-1.2-2.4-.6-3.1-1.2-2.7-2.3.3-.8 0-2-.5-2.8-.9-.9-.6-1.8 1-3.4 2.4-2.4 1.9-4-1.3-4-1.6 0-1.9-.3-.8-.9.7-.5 1.1-1.3.7-1.9-.3-.6.9-1.6 2.9-2.3 3.6-1.3 5-3.5 1.6-2.4-2.3.7-6.1-1.4-6.1-3.2 0-.7-.9-1.3-1.9-1.3-1.6 0-2.1-.9-2.5-4.3-.8-6.4-1.8-27.6-2-42.2-.2-7.2-1-18-2-24-.9-6.1-2.3-15.7-3.1-21.5-2.8-21.2-4.6-28.4-8.9-36.8-1.2-2.4-1.6-6.1-1.6-15.5 0-8.5-.5-13.5-1.4-15.9-1.8-4.2-3.7-24.4-3.8-39.8-.1-6.3.5-22.4 1.2-35.7.9-17.9.9-25.1.1-27.4-.6-1.8-1.1-5.2-1.1-7.7s-.5-6-1.1-7.7c-.9-2.5-.6-9.8 1.3-34.1 2.5-30.6 2.5-30.9 5.6-36.8 1.8-3.2 3.2-6.5 3.2-7.1 0-.7 2-6.1 4.5-12.1 5.7-13.6 5.9-17.4.9-24.1-7.2-9.7-9.3-10.2-15.4-4.1zM73.1 440.8c-.7 1.6-2.8 4.4-4.7 6.3-2.9 2.8-3.4 3-3.4 1.3 0-2.1 2-5.7 2-3.7 0 2.9 2 1 3.1-3 1.4-5.4 1.9-6.1 3.2-4.8.7.7.6 1.9-.2 3.9zm-46 84.9c-1.1 2.1-2 3.5-2.1 3.1 0-1.2 3.3-7.8 3.8-7.4.2.2-.6 2.1-1.7 4.3zm838.6 42.9c-.3.3-1.2.4-1.9.1-.8-.3-.5-.6.6-.6 1.1-.1 1.7.2 1.3.5z"/></svg>